<?xml version="1.0" encoding="utf-8" standalone="no"?>
<!DOCTYPE svg PUBLIC "-//W3C//DTD SVG 1.1//EN"
  "http://www.w3.org/Graphics/SVG/1.1/DTD/svg11.dtd">
<svg xmlns:xlink="http://www.w3.org/1999/xlink" width="691.2pt" height="360pt" viewBox="0 0 691.2 360" xmlns="http://www.w3.org/2000/svg" version="1.1">
 <metadata>
  <rdf:RDF xmlns:dc="http://purl.org/dc/elements/1.1/" xmlns:cc="http://creativecommons.org/ns#" xmlns:rdf="http://www.w3.org/1999/02/22-rdf-syntax-ns#">
   <cc:Work>
    <dc:type rdf:resource="http://purl.org/dc/dcmitype/StillImage"/>
    <dc:date>2024-10-21T12:22:10.537341</dc:date>
    <dc:format>image/svg+xml</dc:format>
    <dc:creator>
     <cc:Agent>
      <dc:title>Matplotlib v3.9.2, https://matplotlib.org/</dc:title>
     </cc:Agent>
    </dc:creator>
   </cc:Work>
  </rdf:RDF>
 </metadata>
 <defs>
  <style type="text/css">*{stroke-linejoin: round; stroke-linecap: butt}</style>
 </defs>
 <g id="figure_1">
  <g id="patch_1">
   <path d="M 0 360 
L 691.2 360 
L 691.2 0 
L 0 0 
L 0 360 
z
" style="fill: none"/>
  </g>
  <g id="axes_1">
   <g id="patch_2">
    <path d="M 48.94399 323.64351 
L 688.19976 323.64351 
L 688.19976 35.07399 
L 48.94399 35.07399 
L 48.94399 323.64351 
z
" style="fill: none"/>
   </g>
   <g id="patch_3">
    <path d="M 78.00107 323.64351 
L 121.802614 323.64351 
L 121.802614 323.133672 
L 78.00107 323.133672 
z
" clip-path="url(#pad986ed7cd)" style="fill: #0aaec4"/>
   </g>
   <g id="patch_4">
    <path d="M 201.385701 323.64351 
L 245.187245 323.64351 
L 245.187245 322.104725 
L 201.385701 322.104725 
z
" clip-path="url(#pad986ed7cd)" style="fill: #0aaec4"/>
   </g>
   <g id="patch_5">
    <path d="M 324.770331 323.64351 
L 368.571875 323.64351 
L 368.571875 320.385641 
L 324.770331 320.385641 
z
" clip-path="url(#pad986ed7cd)" style="fill: #0aaec4"/>
   </g>
   <g id="patch_6">
    <path d="M 448.154962 323.64351 
L 491.956505 323.64351 
L 491.956505 276.783136 
L 448.154962 276.783136 
z
" clip-path="url(#pad986ed7cd)" style="fill: #0aaec4"/>
   </g>
   <g id="patch_7">
    <path d="M 571.539592 323.64351 
L 615.341136 323.64351 
L 615.341136 72.713493 
L 571.539592 72.713493 
z
" clip-path="url(#pad986ed7cd)" style="fill: #0aaec4"/>
   </g>
   <g id="patch_8">
    <path d="M 121.802614 323.64351 
L 165.604158 323.64351 
L 165.604158 323.195864 
L 121.802614 323.195864 
z
" clip-path="url(#pad986ed7cd)" style="fill: #fba700"/>
   </g>
   <g id="patch_9">
    <path d="M 245.187245 323.64351 
L 288.988788 323.64351 
L 288.988788 322.548148 
L 245.187245 322.548148 
z
" clip-path="url(#pad986ed7cd)" style="fill: #fba700"/>
   </g>
   <g id="patch_10">
    <path d="M 368.571875 323.64351 
L 412.373419 323.64351 
L 412.373419 321.551754 
L 368.571875 321.551754 
z
" clip-path="url(#pad986ed7cd)" style="fill: #fba700"/>
   </g>
   <g id="patch_11">
    <path d="M 491.956505 323.64351 
L 535.758049 323.64351 
L 535.758049 306.857351 
L 491.956505 306.857351 
z
" clip-path="url(#pad986ed7cd)" style="fill: #fba700"/>
   </g>
   <g id="patch_12">
    <path d="M 615.341136 323.64351 
L 659.14268 323.64351 
L 659.14268 283.645236 
L 615.341136 283.645236 
z
" clip-path="url(#pad986ed7cd)" style="fill: #fba700"/>
   </g>
   <g id="matplotlib.axis_1">
    <g id="xtick_1">
     <g id="line2d_1">
      <defs>
       <path id="me3fa69072f" d="M 0 0 
L 0 3.5 
" style="stroke: #808080; stroke-width: 0.8"/>
      </defs>
      <g>
       <use xlink:href="#me3fa69072f" x="121.802614" y="323.64351" style="fill: #808080; stroke: #808080; stroke-width: 0.8"/>
      </g>
     </g>
     <g id="text_1">
      <!-- 100 -->
      <g style="fill: #808080" transform="translate(112.258864 338.241947) scale(0.1 -0.1)">
       <defs>
        <path id="DejaVuSans-31" d="M 794 531 
L 1825 531 
L 1825 4091 
L 703 3866 
L 703 4441 
L 1819 4666 
L 2450 4666 
L 2450 531 
L 3481 531 
L 3481 0 
L 794 0 
L 794 531 
z
" transform="scale(0.015625)"/>
        <path id="DejaVuSans-30" d="M 2034 4250 
Q 1547 4250 1301 3770 
Q 1056 3291 1056 2328 
Q 1056 1369 1301 889 
Q 1547 409 2034 409 
Q 2525 409 2770 889 
Q 3016 1369 3016 2328 
Q 3016 3291 2770 3770 
Q 2525 4250 2034 4250 
z
M 2034 4750 
Q 2819 4750 3233 4129 
Q 3647 3509 3647 2328 
Q 3647 1150 3233 529 
Q 2819 -91 2034 -91 
Q 1250 -91 836 529 
Q 422 1150 422 2328 
Q 422 3509 836 4129 
Q 1250 4750 2034 4750 
z
" transform="scale(0.015625)"/>
       </defs>
       <use xlink:href="#DejaVuSans-31"/>
       <use xlink:href="#DejaVuSans-30" x="63.623047"/>
       <use xlink:href="#DejaVuSans-30" x="127.246094"/>
      </g>
     </g>
    </g>
    <g id="xtick_2">
     <g id="line2d_2">
      <g>
       <use xlink:href="#me3fa69072f" x="245.187245" y="323.64351" style="fill: #808080; stroke: #808080; stroke-width: 0.8"/>
      </g>
     </g>
     <g id="text_2">
      <!-- 500 -->
      <g style="fill: #808080" transform="translate(235.643495 338.241947) scale(0.1 -0.1)">
       <defs>
        <path id="DejaVuSans-35" d="M 691 4666 
L 3169 4666 
L 3169 4134 
L 1269 4134 
L 1269 2991 
Q 1406 3038 1543 3061 
Q 1681 3084 1819 3084 
Q 2600 3084 3056 2656 
Q 3513 2228 3513 1497 
Q 3513 744 3044 326 
Q 2575 -91 1722 -91 
Q 1428 -91 1123 -41 
Q 819 9 494 109 
L 494 744 
Q 775 591 1075 516 
Q 1375 441 1709 441 
Q 2250 441 2565 725 
Q 2881 1009 2881 1497 
Q 2881 1984 2565 2268 
Q 2250 2553 1709 2553 
Q 1456 2553 1204 2497 
Q 953 2441 691 2322 
L 691 4666 
z
" transform="scale(0.015625)"/>
       </defs>
       <use xlink:href="#DejaVuSans-35"/>
       <use xlink:href="#DejaVuSans-30" x="63.623047"/>
       <use xlink:href="#DejaVuSans-30" x="127.246094"/>
      </g>
     </g>
    </g>
    <g id="xtick_3">
     <g id="line2d_3">
      <g>
       <use xlink:href="#me3fa69072f" x="368.571875" y="323.64351" style="fill: #808080; stroke: #808080; stroke-width: 0.8"/>
      </g>
     </g>
     <g id="text_3">
      <!-- 1000 -->
      <g style="fill: #808080" transform="translate(355.846875 338.241947) scale(0.1 -0.1)">
       <use xlink:href="#DejaVuSans-31"/>
       <use xlink:href="#DejaVuSans-30" x="63.623047"/>
       <use xlink:href="#DejaVuSans-30" x="127.246094"/>
       <use xlink:href="#DejaVuSans-30" x="190.869141"/>
      </g>
     </g>
    </g>
    <g id="xtick_4">
     <g id="line2d_4">
      <g>
       <use xlink:href="#me3fa69072f" x="491.956505" y="323.64351" style="fill: #808080; stroke: #808080; stroke-width: 0.8"/>
      </g>
     </g>
     <g id="text_4">
      <!-- 5000 -->
      <g style="fill: #808080" transform="translate(479.231505 338.241947) scale(0.1 -0.1)">
       <use xlink:href="#DejaVuSans-35"/>
       <use xlink:href="#DejaVuSans-30" x="63.623047"/>
       <use xlink:href="#DejaVuSans-30" x="127.246094"/>
       <use xlink:href="#DejaVuSans-30" x="190.869141"/>
      </g>
     </g>
    </g>
    <g id="xtick_5">
     <g id="line2d_5">
      <g>
       <use xlink:href="#me3fa69072f" x="615.341136" y="323.64351" style="fill: #808080; stroke: #808080; stroke-width: 0.8"/>
      </g>
     </g>
     <g id="text_5">
      <!-- 10000 -->
      <g style="fill: #808080" transform="translate(599.434886 338.241947) scale(0.1 -0.1)">
       <use xlink:href="#DejaVuSans-31"/>
       <use xlink:href="#DejaVuSans-30" x="63.623047"/>
       <use xlink:href="#DejaVuSans-30" x="127.246094"/>
       <use xlink:href="#DejaVuSans-30" x="190.869141"/>
       <use xlink:href="#DejaVuSans-30" x="254.492188"/>
      </g>
     </g>
    </g>
    <g id="text_6">
     <!-- Subscription Count -->
     <g style="fill: #808080" transform="translate(321.067187 354.920073) scale(0.1 -0.1)">
      <defs>
       <path id="DejaVuSans-53" d="M 3425 4513 
L 3425 3897 
Q 3066 4069 2747 4153 
Q 2428 4238 2131 4238 
Q 1616 4238 1336 4038 
Q 1056 3838 1056 3469 
Q 1056 3159 1242 3001 
Q 1428 2844 1947 2747 
L 2328 2669 
Q 3034 2534 3370 2195 
Q 3706 1856 3706 1288 
Q 3706 609 3251 259 
Q 2797 -91 1919 -91 
Q 1588 -91 1214 -16 
Q 841 59 441 206 
L 441 856 
Q 825 641 1194 531 
Q 1563 422 1919 422 
Q 2459 422 2753 634 
Q 3047 847 3047 1241 
Q 3047 1584 2836 1778 
Q 2625 1972 2144 2069 
L 1759 2144 
Q 1053 2284 737 2584 
Q 422 2884 422 3419 
Q 422 4038 858 4394 
Q 1294 4750 2059 4750 
Q 2388 4750 2728 4690 
Q 3069 4631 3425 4513 
z
" transform="scale(0.015625)"/>
       <path id="DejaVuSans-75" d="M 544 1381 
L 544 3500 
L 1119 3500 
L 1119 1403 
Q 1119 906 1312 657 
Q 1506 409 1894 409 
Q 2359 409 2629 706 
Q 2900 1003 2900 1516 
L 2900 3500 
L 3475 3500 
L 3475 0 
L 2900 0 
L 2900 538 
Q 2691 219 2414 64 
Q 2138 -91 1772 -91 
Q 1169 -91 856 284 
Q 544 659 544 1381 
z
M 1991 3584 
L 1991 3584 
z
" transform="scale(0.015625)"/>
       <path id="DejaVuSans-62" d="M 3116 1747 
Q 3116 2381 2855 2742 
Q 2594 3103 2138 3103 
Q 1681 3103 1420 2742 
Q 1159 2381 1159 1747 
Q 1159 1113 1420 752 
Q 1681 391 2138 391 
Q 2594 391 2855 752 
Q 3116 1113 3116 1747 
z
M 1159 2969 
Q 1341 3281 1617 3432 
Q 1894 3584 2278 3584 
Q 2916 3584 3314 3078 
Q 3713 2572 3713 1747 
Q 3713 922 3314 415 
Q 2916 -91 2278 -91 
Q 1894 -91 1617 61 
Q 1341 213 1159 525 
L 1159 0 
L 581 0 
L 581 4863 
L 1159 4863 
L 1159 2969 
z
" transform="scale(0.015625)"/>
       <path id="DejaVuSans-73" d="M 2834 3397 
L 2834 2853 
Q 2591 2978 2328 3040 
Q 2066 3103 1784 3103 
Q 1356 3103 1142 2972 
Q 928 2841 928 2578 
Q 928 2378 1081 2264 
Q 1234 2150 1697 2047 
L 1894 2003 
Q 2506 1872 2764 1633 
Q 3022 1394 3022 966 
Q 3022 478 2636 193 
Q 2250 -91 1575 -91 
Q 1294 -91 989 -36 
Q 684 19 347 128 
L 347 722 
Q 666 556 975 473 
Q 1284 391 1588 391 
Q 1994 391 2212 530 
Q 2431 669 2431 922 
Q 2431 1156 2273 1281 
Q 2116 1406 1581 1522 
L 1381 1569 
Q 847 1681 609 1914 
Q 372 2147 372 2553 
Q 372 3047 722 3315 
Q 1072 3584 1716 3584 
Q 2034 3584 2315 3537 
Q 2597 3491 2834 3397 
z
" transform="scale(0.015625)"/>
       <path id="DejaVuSans-63" d="M 3122 3366 
L 3122 2828 
Q 2878 2963 2633 3030 
Q 2388 3097 2138 3097 
Q 1578 3097 1268 2742 
Q 959 2388 959 1747 
Q 959 1106 1268 751 
Q 1578 397 2138 397 
Q 2388 397 2633 464 
Q 2878 531 3122 666 
L 3122 134 
Q 2881 22 2623 -34 
Q 2366 -91 2075 -91 
Q 1284 -91 818 406 
Q 353 903 353 1747 
Q 353 2603 823 3093 
Q 1294 3584 2113 3584 
Q 2378 3584 2631 3529 
Q 2884 3475 3122 3366 
z
" transform="scale(0.015625)"/>
       <path id="DejaVuSans-72" d="M 2631 2963 
Q 2534 3019 2420 3045 
Q 2306 3072 2169 3072 
Q 1681 3072 1420 2755 
Q 1159 2438 1159 1844 
L 1159 0 
L 581 0 
L 581 3500 
L 1159 3500 
L 1159 2956 
Q 1341 3275 1631 3429 
Q 1922 3584 2338 3584 
Q 2397 3584 2469 3576 
Q 2541 3569 2628 3553 
L 2631 2963 
z
" transform="scale(0.015625)"/>
       <path id="DejaVuSans-69" d="M 603 3500 
L 1178 3500 
L 1178 0 
L 603 0 
L 603 3500 
z
M 603 4863 
L 1178 4863 
L 1178 4134 
L 603 4134 
L 603 4863 
z
" transform="scale(0.015625)"/>
       <path id="DejaVuSans-70" d="M 1159 525 
L 1159 -1331 
L 581 -1331 
L 581 3500 
L 1159 3500 
L 1159 2969 
Q 1341 3281 1617 3432 
Q 1894 3584 2278 3584 
Q 2916 3584 3314 3078 
Q 3713 2572 3713 1747 
Q 3713 922 3314 415 
Q 2916 -91 2278 -91 
Q 1894 -91 1617 61 
Q 1341 213 1159 525 
z
M 3116 1747 
Q 3116 2381 2855 2742 
Q 2594 3103 2138 3103 
Q 1681 3103 1420 2742 
Q 1159 2381 1159 1747 
Q 1159 1113 1420 752 
Q 1681 391 2138 391 
Q 2594 391 2855 752 
Q 3116 1113 3116 1747 
z
" transform="scale(0.015625)"/>
       <path id="DejaVuSans-74" d="M 1172 4494 
L 1172 3500 
L 2356 3500 
L 2356 3053 
L 1172 3053 
L 1172 1153 
Q 1172 725 1289 603 
Q 1406 481 1766 481 
L 2356 481 
L 2356 0 
L 1766 0 
Q 1100 0 847 248 
Q 594 497 594 1153 
L 594 3053 
L 172 3053 
L 172 3500 
L 594 3500 
L 594 4494 
L 1172 4494 
z
" transform="scale(0.015625)"/>
       <path id="DejaVuSans-6f" d="M 1959 3097 
Q 1497 3097 1228 2736 
Q 959 2375 959 1747 
Q 959 1119 1226 758 
Q 1494 397 1959 397 
Q 2419 397 2687 759 
Q 2956 1122 2956 1747 
Q 2956 2369 2687 2733 
Q 2419 3097 1959 3097 
z
M 1959 3584 
Q 2709 3584 3137 3096 
Q 3566 2609 3566 1747 
Q 3566 888 3137 398 
Q 2709 -91 1959 -91 
Q 1206 -91 779 398 
Q 353 888 353 1747 
Q 353 2609 779 3096 
Q 1206 3584 1959 3584 
z
" transform="scale(0.015625)"/>
       <path id="DejaVuSans-6e" d="M 3513 2113 
L 3513 0 
L 2938 0 
L 2938 2094 
Q 2938 2591 2744 2837 
Q 2550 3084 2163 3084 
Q 1697 3084 1428 2787 
Q 1159 2491 1159 1978 
L 1159 0 
L 581 0 
L 581 3500 
L 1159 3500 
L 1159 2956 
Q 1366 3272 1645 3428 
Q 1925 3584 2291 3584 
Q 2894 3584 3203 3211 
Q 3513 2838 3513 2113 
z
" transform="scale(0.015625)"/>
       <path id="DejaVuSans-20" transform="scale(0.015625)"/>
       <path id="DejaVuSans-43" d="M 4122 4306 
L 4122 3641 
Q 3803 3938 3442 4084 
Q 3081 4231 2675 4231 
Q 1875 4231 1450 3742 
Q 1025 3253 1025 2328 
Q 1025 1406 1450 917 
Q 1875 428 2675 428 
Q 3081 428 3442 575 
Q 3803 722 4122 1019 
L 4122 359 
Q 3791 134 3420 21 
Q 3050 -91 2638 -91 
Q 1578 -91 968 557 
Q 359 1206 359 2328 
Q 359 3453 968 4101 
Q 1578 4750 2638 4750 
Q 3056 4750 3426 4639 
Q 3797 4528 4122 4306 
z
" transform="scale(0.015625)"/>
      </defs>
      <use xlink:href="#DejaVuSans-53"/>
      <use xlink:href="#DejaVuSans-75" x="63.476562"/>
      <use xlink:href="#DejaVuSans-62" x="126.855469"/>
      <use xlink:href="#DejaVuSans-73" x="190.332031"/>
      <use xlink:href="#DejaVuSans-63" x="242.431641"/>
      <use xlink:href="#DejaVuSans-72" x="297.412109"/>
      <use xlink:href="#DejaVuSans-69" x="338.525391"/>
      <use xlink:href="#DejaVuSans-70" x="366.308594"/>
      <use xlink:href="#DejaVuSans-74" x="429.785156"/>
      <use xlink:href="#DejaVuSans-69" x="468.994141"/>
      <use xlink:href="#DejaVuSans-6f" x="496.777344"/>
      <use xlink:href="#DejaVuSans-6e" x="557.958984"/>
      <use xlink:href="#DejaVuSans-20" x="621.337891"/>
      <use xlink:href="#DejaVuSans-43" x="653.125"/>
      <use xlink:href="#DejaVuSans-6f" x="722.949219"/>
      <use xlink:href="#DejaVuSans-75" x="784.130859"/>
      <use xlink:href="#DejaVuSans-6e" x="847.509766"/>
      <use xlink:href="#DejaVuSans-74" x="910.888672"/>
     </g>
    </g>
   </g>
   <g id="matplotlib.axis_2">
    <g id="ytick_1">
     <g id="line2d_6">
      <defs>
       <path id="m75d7fa0ed4" d="M 0 0 
L -3.5 0 
" style="stroke: #808080; stroke-width: 0.8"/>
      </defs>
      <g>
       <use xlink:href="#m75d7fa0ed4" x="48.94399" y="323.64351" style="fill: #808080; stroke: #808080; stroke-width: 0.8"/>
      </g>
     </g>
     <g id="text_7">
      <!-- 0.00 -->
      <g style="fill: #808080" transform="translate(19.678365 327.442729) scale(0.1 -0.1)">
       <defs>
        <path id="DejaVuSans-2e" d="M 684 794 
L 1344 794 
L 1344 0 
L 684 0 
L 684 794 
z
" transform="scale(0.015625)"/>
       </defs>
       <use xlink:href="#DejaVuSans-30"/>
       <use xlink:href="#DejaVuSans-2e" x="63.623047"/>
       <use xlink:href="#DejaVuSans-30" x="95.410156"/>
       <use xlink:href="#DejaVuSans-30" x="159.033203"/>
      </g>
     </g>
    </g>
    <g id="ytick_2">
     <g id="line2d_7">
      <g>
       <use xlink:href="#m75d7fa0ed4" x="48.94399" y="284.619264" style="fill: #808080; stroke: #808080; stroke-width: 0.8"/>
      </g>
     </g>
     <g id="text_8">
      <!-- 0.25 -->
      <g style="fill: #808080" transform="translate(19.678365 288.418482) scale(0.1 -0.1)">
       <defs>
        <path id="DejaVuSans-32" d="M 1228 531 
L 3431 531 
L 3431 0 
L 469 0 
L 469 531 
Q 828 903 1448 1529 
Q 2069 2156 2228 2338 
Q 2531 2678 2651 2914 
Q 2772 3150 2772 3378 
Q 2772 3750 2511 3984 
Q 2250 4219 1831 4219 
Q 1534 4219 1204 4116 
Q 875 4013 500 3803 
L 500 4441 
Q 881 4594 1212 4672 
Q 1544 4750 1819 4750 
Q 2544 4750 2975 4387 
Q 3406 4025 3406 3419 
Q 3406 3131 3298 2873 
Q 3191 2616 2906 2266 
Q 2828 2175 2409 1742 
Q 1991 1309 1228 531 
z
" transform="scale(0.015625)"/>
       </defs>
       <use xlink:href="#DejaVuSans-30"/>
       <use xlink:href="#DejaVuSans-2e" x="63.623047"/>
       <use xlink:href="#DejaVuSans-32" x="95.410156"/>
       <use xlink:href="#DejaVuSans-35" x="159.033203"/>
      </g>
     </g>
    </g>
    <g id="ytick_3">
     <g id="line2d_8">
      <g>
       <use xlink:href="#m75d7fa0ed4" x="48.94399" y="245.595017" style="fill: #808080; stroke: #808080; stroke-width: 0.8"/>
      </g>
     </g>
     <g id="text_9">
      <!-- 0.50 -->
      <g style="fill: #808080" transform="translate(19.678365 249.394236) scale(0.1 -0.1)">
       <use xlink:href="#DejaVuSans-30"/>
       <use xlink:href="#DejaVuSans-2e" x="63.623047"/>
       <use xlink:href="#DejaVuSans-35" x="95.410156"/>
       <use xlink:href="#DejaVuSans-30" x="159.033203"/>
      </g>
     </g>
    </g>
    <g id="ytick_4">
     <g id="line2d_9">
      <g>
       <use xlink:href="#m75d7fa0ed4" x="48.94399" y="206.570771" style="fill: #808080; stroke: #808080; stroke-width: 0.8"/>
      </g>
     </g>
     <g id="text_10">
      <!-- 0.75 -->
      <g style="fill: #808080" transform="translate(19.678365 210.36999) scale(0.1 -0.1)">
       <defs>
        <path id="DejaVuSans-37" d="M 525 4666 
L 3525 4666 
L 3525 4397 
L 1831 0 
L 1172 0 
L 2766 4134 
L 525 4134 
L 525 4666 
z
" transform="scale(0.015625)"/>
       </defs>
       <use xlink:href="#DejaVuSans-30"/>
       <use xlink:href="#DejaVuSans-2e" x="63.623047"/>
       <use xlink:href="#DejaVuSans-37" x="95.410156"/>
       <use xlink:href="#DejaVuSans-35" x="159.033203"/>
      </g>
     </g>
    </g>
    <g id="ytick_5">
     <g id="line2d_10">
      <g>
       <use xlink:href="#m75d7fa0ed4" x="48.94399" y="167.546524" style="fill: #808080; stroke: #808080; stroke-width: 0.8"/>
      </g>
     </g>
     <g id="text_11">
      <!-- 1.00 -->
      <g style="fill: #808080" transform="translate(19.678365 171.345743) scale(0.1 -0.1)">
       <use xlink:href="#DejaVuSans-31"/>
       <use xlink:href="#DejaVuSans-2e" x="63.623047"/>
       <use xlink:href="#DejaVuSans-30" x="95.410156"/>
       <use xlink:href="#DejaVuSans-30" x="159.033203"/>
      </g>
     </g>
    </g>
    <g id="ytick_6">
     <g id="line2d_11">
      <g>
       <use xlink:href="#m75d7fa0ed4" x="48.94399" y="128.522278" style="fill: #808080; stroke: #808080; stroke-width: 0.8"/>
      </g>
     </g>
     <g id="text_12">
      <!-- 1.25 -->
      <g style="fill: #808080" transform="translate(19.678365 132.321497) scale(0.1 -0.1)">
       <use xlink:href="#DejaVuSans-31"/>
       <use xlink:href="#DejaVuSans-2e" x="63.623047"/>
       <use xlink:href="#DejaVuSans-32" x="95.410156"/>
       <use xlink:href="#DejaVuSans-35" x="159.033203"/>
      </g>
     </g>
    </g>
    <g id="ytick_7">
     <g id="line2d_12">
      <g>
       <use xlink:href="#m75d7fa0ed4" x="48.94399" y="89.498032" style="fill: #808080; stroke: #808080; stroke-width: 0.8"/>
      </g>
     </g>
     <g id="text_13">
      <!-- 1.50 -->
      <g style="fill: #808080" transform="translate(19.678365 93.29725) scale(0.1 -0.1)">
       <use xlink:href="#DejaVuSans-31"/>
       <use xlink:href="#DejaVuSans-2e" x="63.623047"/>
       <use xlink:href="#DejaVuSans-35" x="95.410156"/>
       <use xlink:href="#DejaVuSans-30" x="159.033203"/>
      </g>
     </g>
    </g>
    <g id="ytick_8">
     <g id="line2d_13">
      <g>
       <use xlink:href="#m75d7fa0ed4" x="48.94399" y="50.473785" style="fill: #808080; stroke: #808080; stroke-width: 0.8"/>
      </g>
     </g>
     <g id="text_14">
      <!-- 1.75 -->
      <g style="fill: #808080" transform="translate(19.678365 54.273004) scale(0.1 -0.1)">
       <use xlink:href="#DejaVuSans-31"/>
       <use xlink:href="#DejaVuSans-2e" x="63.623047"/>
       <use xlink:href="#DejaVuSans-37" x="95.410156"/>
       <use xlink:href="#DejaVuSans-35" x="159.033203"/>
      </g>
     </g>
    </g>
    <g id="text_15">
     <!-- Event Emission Time (seconds) -->
     <g style="fill: #808080" transform="translate(10.598678 257.268125) rotate(-90) scale(0.1 -0.1)">
      <defs>
       <path id="DejaVuSans-45" d="M 628 4666 
L 3578 4666 
L 3578 4134 
L 1259 4134 
L 1259 2753 
L 3481 2753 
L 3481 2222 
L 1259 2222 
L 1259 531 
L 3634 531 
L 3634 0 
L 628 0 
L 628 4666 
z
" transform="scale(0.015625)"/>
       <path id="DejaVuSans-76" d="M 191 3500 
L 800 3500 
L 1894 563 
L 2988 3500 
L 3597 3500 
L 2284 0 
L 1503 0 
L 191 3500 
z
" transform="scale(0.015625)"/>
       <path id="DejaVuSans-65" d="M 3597 1894 
L 3597 1613 
L 953 1613 
Q 991 1019 1311 708 
Q 1631 397 2203 397 
Q 2534 397 2845 478 
Q 3156 559 3463 722 
L 3463 178 
Q 3153 47 2828 -22 
Q 2503 -91 2169 -91 
Q 1331 -91 842 396 
Q 353 884 353 1716 
Q 353 2575 817 3079 
Q 1281 3584 2069 3584 
Q 2775 3584 3186 3129 
Q 3597 2675 3597 1894 
z
M 3022 2063 
Q 3016 2534 2758 2815 
Q 2500 3097 2075 3097 
Q 1594 3097 1305 2825 
Q 1016 2553 972 2059 
L 3022 2063 
z
" transform="scale(0.015625)"/>
       <path id="DejaVuSans-6d" d="M 3328 2828 
Q 3544 3216 3844 3400 
Q 4144 3584 4550 3584 
Q 5097 3584 5394 3201 
Q 5691 2819 5691 2113 
L 5691 0 
L 5113 0 
L 5113 2094 
Q 5113 2597 4934 2840 
Q 4756 3084 4391 3084 
Q 3944 3084 3684 2787 
Q 3425 2491 3425 1978 
L 3425 0 
L 2847 0 
L 2847 2094 
Q 2847 2600 2669 2842 
Q 2491 3084 2119 3084 
Q 1678 3084 1418 2786 
Q 1159 2488 1159 1978 
L 1159 0 
L 581 0 
L 581 3500 
L 1159 3500 
L 1159 2956 
Q 1356 3278 1631 3431 
Q 1906 3584 2284 3584 
Q 2666 3584 2933 3390 
Q 3200 3197 3328 2828 
z
" transform="scale(0.015625)"/>
       <path id="DejaVuSans-54" d="M -19 4666 
L 3928 4666 
L 3928 4134 
L 2272 4134 
L 2272 0 
L 1638 0 
L 1638 4134 
L -19 4134 
L -19 4666 
z
" transform="scale(0.015625)"/>
       <path id="DejaVuSans-28" d="M 1984 4856 
Q 1566 4138 1362 3434 
Q 1159 2731 1159 2009 
Q 1159 1288 1364 580 
Q 1569 -128 1984 -844 
L 1484 -844 
Q 1016 -109 783 600 
Q 550 1309 550 2009 
Q 550 2706 781 3412 
Q 1013 4119 1484 4856 
L 1984 4856 
z
" transform="scale(0.015625)"/>
       <path id="DejaVuSans-64" d="M 2906 2969 
L 2906 4863 
L 3481 4863 
L 3481 0 
L 2906 0 
L 2906 525 
Q 2725 213 2448 61 
Q 2172 -91 1784 -91 
Q 1150 -91 751 415 
Q 353 922 353 1747 
Q 353 2572 751 3078 
Q 1150 3584 1784 3584 
Q 2172 3584 2448 3432 
Q 2725 3281 2906 2969 
z
M 947 1747 
Q 947 1113 1208 752 
Q 1469 391 1925 391 
Q 2381 391 2643 752 
Q 2906 1113 2906 1747 
Q 2906 2381 2643 2742 
Q 2381 3103 1925 3103 
Q 1469 3103 1208 2742 
Q 947 2381 947 1747 
z
" transform="scale(0.015625)"/>
       <path id="DejaVuSans-29" d="M 513 4856 
L 1013 4856 
Q 1481 4119 1714 3412 
Q 1947 2706 1947 2009 
Q 1947 1309 1714 600 
Q 1481 -109 1013 -844 
L 513 -844 
Q 928 -128 1133 580 
Q 1338 1288 1338 2009 
Q 1338 2731 1133 3434 
Q 928 4138 513 4856 
z
" transform="scale(0.015625)"/>
      </defs>
      <use xlink:href="#DejaVuSans-45"/>
      <use xlink:href="#DejaVuSans-76" x="63.183594"/>
      <use xlink:href="#DejaVuSans-65" x="122.363281"/>
      <use xlink:href="#DejaVuSans-6e" x="183.886719"/>
      <use xlink:href="#DejaVuSans-74" x="247.265625"/>
      <use xlink:href="#DejaVuSans-20" x="286.474609"/>
      <use xlink:href="#DejaVuSans-45" x="318.261719"/>
      <use xlink:href="#DejaVuSans-6d" x="381.445312"/>
      <use xlink:href="#DejaVuSans-69" x="478.857422"/>
      <use xlink:href="#DejaVuSans-73" x="506.640625"/>
      <use xlink:href="#DejaVuSans-73" x="558.740234"/>
      <use xlink:href="#DejaVuSans-69" x="610.839844"/>
      <use xlink:href="#DejaVuSans-6f" x="638.623047"/>
      <use xlink:href="#DejaVuSans-6e" x="699.804688"/>
      <use xlink:href="#DejaVuSans-20" x="763.183594"/>
      <use xlink:href="#DejaVuSans-54" x="794.970703"/>
      <use xlink:href="#DejaVuSans-69" x="852.929688"/>
      <use xlink:href="#DejaVuSans-6d" x="880.712891"/>
      <use xlink:href="#DejaVuSans-65" x="978.125"/>
      <use xlink:href="#DejaVuSans-20" x="1039.648438"/>
      <use xlink:href="#DejaVuSans-28" x="1071.435547"/>
      <use xlink:href="#DejaVuSans-73" x="1110.449219"/>
      <use xlink:href="#DejaVuSans-65" x="1162.548828"/>
      <use xlink:href="#DejaVuSans-63" x="1224.072266"/>
      <use xlink:href="#DejaVuSans-6f" x="1279.052734"/>
      <use xlink:href="#DejaVuSans-6e" x="1340.234375"/>
      <use xlink:href="#DejaVuSans-64" x="1403.613281"/>
      <use xlink:href="#DejaVuSans-73" x="1467.089844"/>
      <use xlink:href="#DejaVuSans-29" x="1519.189453"/>
     </g>
    </g>
   </g>
   <g id="patch_13">
    <path d="M 48.94399 323.64351 
L 48.94399 35.07399 
" style="fill: none; stroke: #808080; stroke-width: 0.8; stroke-linejoin: miter; stroke-linecap: square"/>
   </g>
   <g id="patch_14">
    <path d="M 688.19976 323.64351 
L 688.19976 35.07399 
" style="fill: none; stroke: #808080; stroke-width: 0.8; stroke-linejoin: miter; stroke-linecap: square"/>
   </g>
   <g id="patch_15">
    <path d="M 48.94399 323.64351 
L 688.19976 323.64351 
" style="fill: none; stroke: #808080; stroke-width: 0.8; stroke-linejoin: miter; stroke-linecap: square"/>
   </g>
   <g id="patch_16">
    <path d="M 48.94399 35.07399 
L 688.19976 35.07399 
" style="fill: none; stroke: #808080; stroke-width: 0.8; stroke-linejoin: miter; stroke-linecap: square"/>
   </g>
   <g id="text_16">
    <!-- 0.00327 -->
    <g style="fill: #808080" transform="translate(79.22528 319.053985) scale(0.1 -0.1)">
     <defs>
      <path id="DejaVuSans-33" d="M 2597 2516 
Q 3050 2419 3304 2112 
Q 3559 1806 3559 1356 
Q 3559 666 3084 287 
Q 2609 -91 1734 -91 
Q 1441 -91 1130 -33 
Q 819 25 488 141 
L 488 750 
Q 750 597 1062 519 
Q 1375 441 1716 441 
Q 2309 441 2620 675 
Q 2931 909 2931 1356 
Q 2931 1769 2642 2001 
Q 2353 2234 1838 2234 
L 1294 2234 
L 1294 2753 
L 1863 2753 
Q 2328 2753 2575 2939 
Q 2822 3125 2822 3475 
Q 2822 3834 2567 4026 
Q 2313 4219 1838 4219 
Q 1578 4219 1281 4162 
Q 984 4106 628 3988 
L 628 4550 
Q 988 4650 1302 4700 
Q 1616 4750 1894 4750 
Q 2613 4750 3031 4423 
Q 3450 4097 3450 3541 
Q 3450 3153 3228 2886 
Q 3006 2619 2597 2516 
z
" transform="scale(0.015625)"/>
     </defs>
     <use xlink:href="#DejaVuSans-30"/>
     <use xlink:href="#DejaVuSans-2e" x="63.623047"/>
     <use xlink:href="#DejaVuSans-30" x="95.410156"/>
     <use xlink:href="#DejaVuSans-30" x="159.033203"/>
     <use xlink:href="#DejaVuSans-33" x="222.65625"/>
     <use xlink:href="#DejaVuSans-32" x="286.279297"/>
     <use xlink:href="#DejaVuSans-37" x="349.902344"/>
    </g>
   </g>
   <g id="text_17">
    <!-- 0.00986 -->
    <g style="fill: #808080" transform="translate(202.60991 318.025037) scale(0.1 -0.1)">
     <defs>
      <path id="DejaVuSans-39" d="M 703 97 
L 703 672 
Q 941 559 1184 500 
Q 1428 441 1663 441 
Q 2288 441 2617 861 
Q 2947 1281 2994 2138 
Q 2813 1869 2534 1725 
Q 2256 1581 1919 1581 
Q 1219 1581 811 2004 
Q 403 2428 403 3163 
Q 403 3881 828 4315 
Q 1253 4750 1959 4750 
Q 2769 4750 3195 4129 
Q 3622 3509 3622 2328 
Q 3622 1225 3098 567 
Q 2575 -91 1691 -91 
Q 1453 -91 1209 -44 
Q 966 3 703 97 
z
M 1959 2075 
Q 2384 2075 2632 2365 
Q 2881 2656 2881 3163 
Q 2881 3666 2632 3958 
Q 2384 4250 1959 4250 
Q 1534 4250 1286 3958 
Q 1038 3666 1038 3163 
Q 1038 2656 1286 2365 
Q 1534 2075 1959 2075 
z
" transform="scale(0.015625)"/>
      <path id="DejaVuSans-38" d="M 2034 2216 
Q 1584 2216 1326 1975 
Q 1069 1734 1069 1313 
Q 1069 891 1326 650 
Q 1584 409 2034 409 
Q 2484 409 2743 651 
Q 3003 894 3003 1313 
Q 3003 1734 2745 1975 
Q 2488 2216 2034 2216 
z
M 1403 2484 
Q 997 2584 770 2862 
Q 544 3141 544 3541 
Q 544 4100 942 4425 
Q 1341 4750 2034 4750 
Q 2731 4750 3128 4425 
Q 3525 4100 3525 3541 
Q 3525 3141 3298 2862 
Q 3072 2584 2669 2484 
Q 3125 2378 3379 2068 
Q 3634 1759 3634 1313 
Q 3634 634 3220 271 
Q 2806 -91 2034 -91 
Q 1263 -91 848 271 
Q 434 634 434 1313 
Q 434 1759 690 2068 
Q 947 2378 1403 2484 
z
M 1172 3481 
Q 1172 3119 1398 2916 
Q 1625 2713 2034 2713 
Q 2441 2713 2670 2916 
Q 2900 3119 2900 3481 
Q 2900 3844 2670 4047 
Q 2441 4250 2034 4250 
Q 1625 4250 1398 4047 
Q 1172 3844 1172 3481 
z
" transform="scale(0.015625)"/>
      <path id="DejaVuSans-36" d="M 2113 2584 
Q 1688 2584 1439 2293 
Q 1191 2003 1191 1497 
Q 1191 994 1439 701 
Q 1688 409 2113 409 
Q 2538 409 2786 701 
Q 3034 994 3034 1497 
Q 3034 2003 2786 2293 
Q 2538 2584 2113 2584 
z
M 3366 4563 
L 3366 3988 
Q 3128 4100 2886 4159 
Q 2644 4219 2406 4219 
Q 1781 4219 1451 3797 
Q 1122 3375 1075 2522 
Q 1259 2794 1537 2939 
Q 1816 3084 2150 3084 
Q 2853 3084 3261 2657 
Q 3669 2231 3669 1497 
Q 3669 778 3244 343 
Q 2819 -91 2113 -91 
Q 1303 -91 875 529 
Q 447 1150 447 2328 
Q 447 3434 972 4092 
Q 1497 4750 2381 4750 
Q 2619 4750 2861 4703 
Q 3103 4656 3366 4563 
z
" transform="scale(0.015625)"/>
     </defs>
     <use xlink:href="#DejaVuSans-30"/>
     <use xlink:href="#DejaVuSans-2e" x="63.623047"/>
     <use xlink:href="#DejaVuSans-30" x="95.410156"/>
     <use xlink:href="#DejaVuSans-30" x="159.033203"/>
     <use xlink:href="#DejaVuSans-39" x="222.65625"/>
     <use xlink:href="#DejaVuSans-38" x="286.279297"/>
     <use xlink:href="#DejaVuSans-36" x="349.902344"/>
    </g>
   </g>
   <g id="text_18">
    <!-- 0.02087 -->
    <g style="fill: #808080" transform="translate(325.994541 316.305954) scale(0.1 -0.1)">
     <use xlink:href="#DejaVuSans-30"/>
     <use xlink:href="#DejaVuSans-2e" x="63.623047"/>
     <use xlink:href="#DejaVuSans-30" x="95.410156"/>
     <use xlink:href="#DejaVuSans-32" x="159.033203"/>
     <use xlink:href="#DejaVuSans-30" x="222.65625"/>
     <use xlink:href="#DejaVuSans-38" x="286.279297"/>
     <use xlink:href="#DejaVuSans-37" x="349.902344"/>
    </g>
   </g>
   <g id="text_19">
    <!-- 0.30020 -->
    <g style="fill: #808080" transform="translate(449.379171 272.703448) scale(0.1 -0.1)">
     <use xlink:href="#DejaVuSans-30"/>
     <use xlink:href="#DejaVuSans-2e" x="63.623047"/>
     <use xlink:href="#DejaVuSans-33" x="95.410156"/>
     <use xlink:href="#DejaVuSans-30" x="159.033203"/>
     <use xlink:href="#DejaVuSans-30" x="222.65625"/>
     <use xlink:href="#DejaVuSans-32" x="286.279297"/>
     <use xlink:href="#DejaVuSans-30" x="349.902344"/>
    </g>
   </g>
   <g id="text_20">
    <!-- 1.60753 -->
    <g style="fill: #808080" transform="translate(572.763801 68.633805) scale(0.1 -0.1)">
     <use xlink:href="#DejaVuSans-31"/>
     <use xlink:href="#DejaVuSans-2e" x="63.623047"/>
     <use xlink:href="#DejaVuSans-36" x="95.410156"/>
     <use xlink:href="#DejaVuSans-30" x="159.033203"/>
     <use xlink:href="#DejaVuSans-37" x="222.65625"/>
     <use xlink:href="#DejaVuSans-35" x="286.279297"/>
     <use xlink:href="#DejaVuSans-33" x="349.902344"/>
    </g>
   </g>
   <g id="text_21">
    <!-- 0.00287 -->
    <g style="fill: #808080" transform="translate(123.026824 319.116177) scale(0.1 -0.1)">
     <use xlink:href="#DejaVuSans-30"/>
     <use xlink:href="#DejaVuSans-2e" x="63.623047"/>
     <use xlink:href="#DejaVuSans-30" x="95.410156"/>
     <use xlink:href="#DejaVuSans-30" x="159.033203"/>
     <use xlink:href="#DejaVuSans-32" x="222.65625"/>
     <use xlink:href="#DejaVuSans-38" x="286.279297"/>
     <use xlink:href="#DejaVuSans-37" x="349.902344"/>
    </g>
   </g>
   <g id="text_22">
    <!-- 0.00702 -->
    <g style="fill: #808080" transform="translate(246.411454 318.46846) scale(0.1 -0.1)">
     <use xlink:href="#DejaVuSans-30"/>
     <use xlink:href="#DejaVuSans-2e" x="63.623047"/>
     <use xlink:href="#DejaVuSans-30" x="95.410156"/>
     <use xlink:href="#DejaVuSans-30" x="159.033203"/>
     <use xlink:href="#DejaVuSans-37" x="222.65625"/>
     <use xlink:href="#DejaVuSans-30" x="286.279297"/>
     <use xlink:href="#DejaVuSans-32" x="349.902344"/>
    </g>
   </g>
   <g id="text_23">
    <!-- 0.01340 -->
    <g style="fill: #808080" transform="translate(369.796084 317.472067) scale(0.1 -0.1)">
     <defs>
      <path id="DejaVuSans-34" d="M 2419 4116 
L 825 1625 
L 2419 1625 
L 2419 4116 
z
M 2253 4666 
L 3047 4666 
L 3047 1625 
L 3713 1625 
L 3713 1100 
L 3047 1100 
L 3047 0 
L 2419 0 
L 2419 1100 
L 313 1100 
L 313 1709 
L 2253 4666 
z
" transform="scale(0.015625)"/>
     </defs>
     <use xlink:href="#DejaVuSans-30"/>
     <use xlink:href="#DejaVuSans-2e" x="63.623047"/>
     <use xlink:href="#DejaVuSans-30" x="95.410156"/>
     <use xlink:href="#DejaVuSans-31" x="159.033203"/>
     <use xlink:href="#DejaVuSans-33" x="222.65625"/>
     <use xlink:href="#DejaVuSans-34" x="286.279297"/>
     <use xlink:href="#DejaVuSans-30" x="349.902344"/>
    </g>
   </g>
   <g id="text_24">
    <!-- 0.10754 -->
    <g style="fill: #808080" transform="translate(493.180715 302.777663) scale(0.1 -0.1)">
     <use xlink:href="#DejaVuSans-30"/>
     <use xlink:href="#DejaVuSans-2e" x="63.623047"/>
     <use xlink:href="#DejaVuSans-31" x="95.410156"/>
     <use xlink:href="#DejaVuSans-30" x="159.033203"/>
     <use xlink:href="#DejaVuSans-37" x="222.65625"/>
     <use xlink:href="#DejaVuSans-35" x="286.279297"/>
     <use xlink:href="#DejaVuSans-34" x="349.902344"/>
    </g>
   </g>
   <g id="text_25">
    <!-- 0.25624 -->
    <g style="fill: #808080" transform="translate(616.565345 279.565548) scale(0.1 -0.1)">
     <use xlink:href="#DejaVuSans-30"/>
     <use xlink:href="#DejaVuSans-2e" x="63.623047"/>
     <use xlink:href="#DejaVuSans-32" x="95.410156"/>
     <use xlink:href="#DejaVuSans-35" x="159.033203"/>
     <use xlink:href="#DejaVuSans-36" x="222.65625"/>
     <use xlink:href="#DejaVuSans-32" x="286.279297"/>
     <use xlink:href="#DejaVuSans-34" x="349.902344"/>
    </g>
   </g>
   <g id="text_26">
    <!-- Impact of Subscription Count on Event Emission Time: Comparison of Pyventus v0.6.0 and v0.7.0 -->
    <g style="fill: #808080" transform="translate(124.732031 10.598677) scale(0.1 -0.1)">
     <defs>
      <path id="DejaVuSans-49" d="M 628 4666 
L 1259 4666 
L 1259 0 
L 628 0 
L 628 4666 
z
" transform="scale(0.015625)"/>
      <path id="DejaVuSans-61" d="M 2194 1759 
Q 1497 1759 1228 1600 
Q 959 1441 959 1056 
Q 959 750 1161 570 
Q 1363 391 1709 391 
Q 2188 391 2477 730 
Q 2766 1069 2766 1631 
L 2766 1759 
L 2194 1759 
z
M 3341 1997 
L 3341 0 
L 2766 0 
L 2766 531 
Q 2569 213 2275 61 
Q 1981 -91 1556 -91 
Q 1019 -91 701 211 
Q 384 513 384 1019 
Q 384 1609 779 1909 
Q 1175 2209 1959 2209 
L 2766 2209 
L 2766 2266 
Q 2766 2663 2505 2880 
Q 2244 3097 1772 3097 
Q 1472 3097 1187 3025 
Q 903 2953 641 2809 
L 641 3341 
Q 956 3463 1253 3523 
Q 1550 3584 1831 3584 
Q 2591 3584 2966 3190 
Q 3341 2797 3341 1997 
z
" transform="scale(0.015625)"/>
      <path id="DejaVuSans-66" d="M 2375 4863 
L 2375 4384 
L 1825 4384 
Q 1516 4384 1395 4259 
Q 1275 4134 1275 3809 
L 1275 3500 
L 2222 3500 
L 2222 3053 
L 1275 3053 
L 1275 0 
L 697 0 
L 697 3053 
L 147 3053 
L 147 3500 
L 697 3500 
L 697 3744 
Q 697 4328 969 4595 
Q 1241 4863 1831 4863 
L 2375 4863 
z
" transform="scale(0.015625)"/>
      <path id="DejaVuSans-3a" d="M 750 794 
L 1409 794 
L 1409 0 
L 750 0 
L 750 794 
z
M 750 3309 
L 1409 3309 
L 1409 2516 
L 750 2516 
L 750 3309 
z
" transform="scale(0.015625)"/>
      <path id="DejaVuSans-50" d="M 1259 4147 
L 1259 2394 
L 2053 2394 
Q 2494 2394 2734 2622 
Q 2975 2850 2975 3272 
Q 2975 3691 2734 3919 
Q 2494 4147 2053 4147 
L 1259 4147 
z
M 628 4666 
L 2053 4666 
Q 2838 4666 3239 4311 
Q 3641 3956 3641 3272 
Q 3641 2581 3239 2228 
Q 2838 1875 2053 1875 
L 1259 1875 
L 1259 0 
L 628 0 
L 628 4666 
z
" transform="scale(0.015625)"/>
      <path id="DejaVuSans-79" d="M 2059 -325 
Q 1816 -950 1584 -1140 
Q 1353 -1331 966 -1331 
L 506 -1331 
L 506 -850 
L 844 -850 
Q 1081 -850 1212 -737 
Q 1344 -625 1503 -206 
L 1606 56 
L 191 3500 
L 800 3500 
L 1894 763 
L 2988 3500 
L 3597 3500 
L 2059 -325 
z
" transform="scale(0.015625)"/>
     </defs>
     <use xlink:href="#DejaVuSans-49"/>
     <use xlink:href="#DejaVuSans-6d" x="29.492188"/>
     <use xlink:href="#DejaVuSans-70" x="126.904297"/>
     <use xlink:href="#DejaVuSans-61" x="190.380859"/>
     <use xlink:href="#DejaVuSans-63" x="251.660156"/>
     <use xlink:href="#DejaVuSans-74" x="306.640625"/>
     <use xlink:href="#DejaVuSans-20" x="345.849609"/>
     <use xlink:href="#DejaVuSans-6f" x="377.636719"/>
     <use xlink:href="#DejaVuSans-66" x="438.818359"/>
     <use xlink:href="#DejaVuSans-20" x="474.023438"/>
     <use xlink:href="#DejaVuSans-53" x="505.810547"/>
     <use xlink:href="#DejaVuSans-75" x="569.287109"/>
     <use xlink:href="#DejaVuSans-62" x="632.666016"/>
     <use xlink:href="#DejaVuSans-73" x="696.142578"/>
     <use xlink:href="#DejaVuSans-63" x="748.242188"/>
     <use xlink:href="#DejaVuSans-72" x="803.222656"/>
     <use xlink:href="#DejaVuSans-69" x="844.335938"/>
     <use xlink:href="#DejaVuSans-70" x="872.119141"/>
     <use xlink:href="#DejaVuSans-74" x="935.595703"/>
     <use xlink:href="#DejaVuSans-69" x="974.804688"/>
     <use xlink:href="#DejaVuSans-6f" x="1002.587891"/>
     <use xlink:href="#DejaVuSans-6e" x="1063.769531"/>
     <use xlink:href="#DejaVuSans-20" x="1127.148438"/>
     <use xlink:href="#DejaVuSans-43" x="1158.935547"/>
     <use xlink:href="#DejaVuSans-6f" x="1228.759766"/>
     <use xlink:href="#DejaVuSans-75" x="1289.941406"/>
     <use xlink:href="#DejaVuSans-6e" x="1353.320312"/>
     <use xlink:href="#DejaVuSans-74" x="1416.699219"/>
     <use xlink:href="#DejaVuSans-20" x="1455.908203"/>
     <use xlink:href="#DejaVuSans-6f" x="1487.695312"/>
     <use xlink:href="#DejaVuSans-6e" x="1548.876953"/>
     <use xlink:href="#DejaVuSans-20" x="1612.255859"/>
     <use xlink:href="#DejaVuSans-45" x="1644.042969"/>
     <use xlink:href="#DejaVuSans-76" x="1707.226562"/>
     <use xlink:href="#DejaVuSans-65" x="1766.40625"/>
     <use xlink:href="#DejaVuSans-6e" x="1827.929688"/>
     <use xlink:href="#DejaVuSans-74" x="1891.308594"/>
     <use xlink:href="#DejaVuSans-20" x="1930.517578"/>
     <use xlink:href="#DejaVuSans-45" x="1962.304688"/>
     <use xlink:href="#DejaVuSans-6d" x="2025.488281"/>
     <use xlink:href="#DejaVuSans-69" x="2122.900391"/>
     <use xlink:href="#DejaVuSans-73" x="2150.683594"/>
     <use xlink:href="#DejaVuSans-73" x="2202.783203"/>
     <use xlink:href="#DejaVuSans-69" x="2254.882812"/>
     <use xlink:href="#DejaVuSans-6f" x="2282.666016"/>
     <use xlink:href="#DejaVuSans-6e" x="2343.847656"/>
     <use xlink:href="#DejaVuSans-20" x="2407.226562"/>
     <use xlink:href="#DejaVuSans-54" x="2439.013672"/>
     <use xlink:href="#DejaVuSans-69" x="2496.972656"/>
     <use xlink:href="#DejaVuSans-6d" x="2524.755859"/>
     <use xlink:href="#DejaVuSans-65" x="2622.167969"/>
     <use xlink:href="#DejaVuSans-3a" x="2683.691406"/>
     <use xlink:href="#DejaVuSans-20" x="2717.382812"/>
     <use xlink:href="#DejaVuSans-43" x="2749.169922"/>
     <use xlink:href="#DejaVuSans-6f" x="2818.994141"/>
     <use xlink:href="#DejaVuSans-6d" x="2880.175781"/>
     <use xlink:href="#DejaVuSans-70" x="2977.587891"/>
     <use xlink:href="#DejaVuSans-61" x="3041.064453"/>
     <use xlink:href="#DejaVuSans-72" x="3102.34375"/>
     <use xlink:href="#DejaVuSans-69" x="3143.457031"/>
     <use xlink:href="#DejaVuSans-73" x="3171.240234"/>
     <use xlink:href="#DejaVuSans-6f" x="3223.339844"/>
     <use xlink:href="#DejaVuSans-6e" x="3284.521484"/>
     <use xlink:href="#DejaVuSans-20" x="3347.900391"/>
     <use xlink:href="#DejaVuSans-6f" x="3379.6875"/>
     <use xlink:href="#DejaVuSans-66" x="3440.869141"/>
     <use xlink:href="#DejaVuSans-20" x="3476.074219"/>
     <use xlink:href="#DejaVuSans-50" x="3507.861328"/>
     <use xlink:href="#DejaVuSans-79" x="3568.164062"/>
     <use xlink:href="#DejaVuSans-76" x="3627.34375"/>
     <use xlink:href="#DejaVuSans-65" x="3686.523438"/>
     <use xlink:href="#DejaVuSans-6e" x="3748.046875"/>
     <use xlink:href="#DejaVuSans-74" x="3811.425781"/>
     <use xlink:href="#DejaVuSans-75" x="3850.634766"/>
     <use xlink:href="#DejaVuSans-73" x="3914.013672"/>
     <use xlink:href="#DejaVuSans-20" x="3966.113281"/>
     <use xlink:href="#DejaVuSans-76" x="3997.900391"/>
     <use xlink:href="#DejaVuSans-30" x="4057.080078"/>
     <use xlink:href="#DejaVuSans-2e" x="4120.703125"/>
     <use xlink:href="#DejaVuSans-36" x="4152.490234"/>
     <use xlink:href="#DejaVuSans-2e" x="4216.113281"/>
     <use xlink:href="#DejaVuSans-30" x="4247.900391"/>
     <use xlink:href="#DejaVuSans-20" x="4311.523438"/>
     <use xlink:href="#DejaVuSans-61" x="4343.310547"/>
     <use xlink:href="#DejaVuSans-6e" x="4404.589844"/>
     <use xlink:href="#DejaVuSans-64" x="4467.96875"/>
     <use xlink:href="#DejaVuSans-20" x="4531.445312"/>
     <use xlink:href="#DejaVuSans-76" x="4563.232422"/>
     <use xlink:href="#DejaVuSans-30" x="4622.412109"/>
     <use xlink:href="#DejaVuSans-2e" x="4686.035156"/>
     <use xlink:href="#DejaVuSans-37" x="4717.822266"/>
     <use xlink:href="#DejaVuSans-2e" x="4781.445312"/>
     <use xlink:href="#DejaVuSans-30" x="4813.232422"/>
    </g>
    <!-- (Event Subscription: All, One-time Subscription: All, Repeats: 5, Executions: 1250) -->
    <g style="fill: #808080" transform="translate(163.476562 21.79649) scale(0.1 -0.1)">
     <defs>
      <path id="DejaVuSans-41" d="M 2188 4044 
L 1331 1722 
L 3047 1722 
L 2188 4044 
z
M 1831 4666 
L 2547 4666 
L 4325 0 
L 3669 0 
L 3244 1197 
L 1141 1197 
L 716 0 
L 50 0 
L 1831 4666 
z
" transform="scale(0.015625)"/>
      <path id="DejaVuSans-6c" d="M 603 4863 
L 1178 4863 
L 1178 0 
L 603 0 
L 603 4863 
z
" transform="scale(0.015625)"/>
      <path id="DejaVuSans-2c" d="M 750 794 
L 1409 794 
L 1409 256 
L 897 -744 
L 494 -744 
L 750 256 
L 750 794 
z
" transform="scale(0.015625)"/>
      <path id="DejaVuSans-4f" d="M 2522 4238 
Q 1834 4238 1429 3725 
Q 1025 3213 1025 2328 
Q 1025 1447 1429 934 
Q 1834 422 2522 422 
Q 3209 422 3611 934 
Q 4013 1447 4013 2328 
Q 4013 3213 3611 3725 
Q 3209 4238 2522 4238 
z
M 2522 4750 
Q 3503 4750 4090 4092 
Q 4678 3434 4678 2328 
Q 4678 1225 4090 567 
Q 3503 -91 2522 -91 
Q 1538 -91 948 565 
Q 359 1222 359 2328 
Q 359 3434 948 4092 
Q 1538 4750 2522 4750 
z
" transform="scale(0.015625)"/>
      <path id="DejaVuSans-2d" d="M 313 2009 
L 1997 2009 
L 1997 1497 
L 313 1497 
L 313 2009 
z
" transform="scale(0.015625)"/>
      <path id="DejaVuSans-52" d="M 2841 2188 
Q 3044 2119 3236 1894 
Q 3428 1669 3622 1275 
L 4263 0 
L 3584 0 
L 2988 1197 
Q 2756 1666 2539 1819 
Q 2322 1972 1947 1972 
L 1259 1972 
L 1259 0 
L 628 0 
L 628 4666 
L 2053 4666 
Q 2853 4666 3247 4331 
Q 3641 3997 3641 3322 
Q 3641 2881 3436 2590 
Q 3231 2300 2841 2188 
z
M 1259 4147 
L 1259 2491 
L 2053 2491 
Q 2509 2491 2742 2702 
Q 2975 2913 2975 3322 
Q 2975 3731 2742 3939 
Q 2509 4147 2053 4147 
L 1259 4147 
z
" transform="scale(0.015625)"/>
      <path id="DejaVuSans-78" d="M 3513 3500 
L 2247 1797 
L 3578 0 
L 2900 0 
L 1881 1375 
L 863 0 
L 184 0 
L 1544 1831 
L 300 3500 
L 978 3500 
L 1906 2253 
L 2834 3500 
L 3513 3500 
z
" transform="scale(0.015625)"/>
     </defs>
     <use xlink:href="#DejaVuSans-28"/>
     <use xlink:href="#DejaVuSans-45" x="39.013672"/>
     <use xlink:href="#DejaVuSans-76" x="102.197266"/>
     <use xlink:href="#DejaVuSans-65" x="161.376953"/>
     <use xlink:href="#DejaVuSans-6e" x="222.900391"/>
     <use xlink:href="#DejaVuSans-74" x="286.279297"/>
     <use xlink:href="#DejaVuSans-20" x="325.488281"/>
     <use xlink:href="#DejaVuSans-53" x="357.275391"/>
     <use xlink:href="#DejaVuSans-75" x="420.751953"/>
     <use xlink:href="#DejaVuSans-62" x="484.130859"/>
     <use xlink:href="#DejaVuSans-73" x="547.607422"/>
     <use xlink:href="#DejaVuSans-63" x="599.707031"/>
     <use xlink:href="#DejaVuSans-72" x="654.6875"/>
     <use xlink:href="#DejaVuSans-69" x="695.800781"/>
     <use xlink:href="#DejaVuSans-70" x="723.583984"/>
     <use xlink:href="#DejaVuSans-74" x="787.060547"/>
     <use xlink:href="#DejaVuSans-69" x="826.269531"/>
     <use xlink:href="#DejaVuSans-6f" x="854.052734"/>
     <use xlink:href="#DejaVuSans-6e" x="915.234375"/>
     <use xlink:href="#DejaVuSans-3a" x="978.613281"/>
     <use xlink:href="#DejaVuSans-20" x="1012.304688"/>
     <use xlink:href="#DejaVuSans-41" x="1044.091797"/>
     <use xlink:href="#DejaVuSans-6c" x="1112.5"/>
     <use xlink:href="#DejaVuSans-6c" x="1140.283203"/>
     <use xlink:href="#DejaVuSans-2c" x="1168.066406"/>
     <use xlink:href="#DejaVuSans-20" x="1199.853516"/>
     <use xlink:href="#DejaVuSans-4f" x="1231.640625"/>
     <use xlink:href="#DejaVuSans-6e" x="1310.351562"/>
     <use xlink:href="#DejaVuSans-65" x="1373.730469"/>
     <use xlink:href="#DejaVuSans-2d" x="1435.253906"/>
     <use xlink:href="#DejaVuSans-74" x="1471.337891"/>
     <use xlink:href="#DejaVuSans-69" x="1510.546875"/>
     <use xlink:href="#DejaVuSans-6d" x="1538.330078"/>
     <use xlink:href="#DejaVuSans-65" x="1635.742188"/>
     <use xlink:href="#DejaVuSans-20" x="1697.265625"/>
     <use xlink:href="#DejaVuSans-53" x="1729.052734"/>
     <use xlink:href="#DejaVuSans-75" x="1792.529297"/>
     <use xlink:href="#DejaVuSans-62" x="1855.908203"/>
     <use xlink:href="#DejaVuSans-73" x="1919.384766"/>
     <use xlink:href="#DejaVuSans-63" x="1971.484375"/>
     <use xlink:href="#DejaVuSans-72" x="2026.464844"/>
     <use xlink:href="#DejaVuSans-69" x="2067.578125"/>
     <use xlink:href="#DejaVuSans-70" x="2095.361328"/>
     <use xlink:href="#DejaVuSans-74" x="2158.837891"/>
     <use xlink:href="#DejaVuSans-69" x="2198.046875"/>
     <use xlink:href="#DejaVuSans-6f" x="2225.830078"/>
     <use xlink:href="#DejaVuSans-6e" x="2287.011719"/>
     <use xlink:href="#DejaVuSans-3a" x="2350.390625"/>
     <use xlink:href="#DejaVuSans-20" x="2384.082031"/>
     <use xlink:href="#DejaVuSans-41" x="2415.869141"/>
     <use xlink:href="#DejaVuSans-6c" x="2484.277344"/>
     <use xlink:href="#DejaVuSans-6c" x="2512.060547"/>
     <use xlink:href="#DejaVuSans-2c" x="2539.84375"/>
     <use xlink:href="#DejaVuSans-20" x="2571.630859"/>
     <use xlink:href="#DejaVuSans-52" x="2603.417969"/>
     <use xlink:href="#DejaVuSans-65" x="2668.400391"/>
     <use xlink:href="#DejaVuSans-70" x="2729.923828"/>
     <use xlink:href="#DejaVuSans-65" x="2793.400391"/>
     <use xlink:href="#DejaVuSans-61" x="2854.923828"/>
     <use xlink:href="#DejaVuSans-74" x="2916.203125"/>
     <use xlink:href="#DejaVuSans-73" x="2955.412109"/>
     <use xlink:href="#DejaVuSans-3a" x="3007.511719"/>
     <use xlink:href="#DejaVuSans-20" x="3041.203125"/>
     <use xlink:href="#DejaVuSans-35" x="3072.990234"/>
     <use xlink:href="#DejaVuSans-2c" x="3136.613281"/>
     <use xlink:href="#DejaVuSans-20" x="3168.400391"/>
     <use xlink:href="#DejaVuSans-45" x="3200.1875"/>
     <use xlink:href="#DejaVuSans-78" x="3263.371094"/>
     <use xlink:href="#DejaVuSans-65" x="3319.425781"/>
     <use xlink:href="#DejaVuSans-63" x="3380.949219"/>
     <use xlink:href="#DejaVuSans-75" x="3435.929688"/>
     <use xlink:href="#DejaVuSans-74" x="3499.308594"/>
     <use xlink:href="#DejaVuSans-69" x="3538.517578"/>
     <use xlink:href="#DejaVuSans-6f" x="3566.300781"/>
     <use xlink:href="#DejaVuSans-6e" x="3627.482422"/>
     <use xlink:href="#DejaVuSans-73" x="3690.861328"/>
     <use xlink:href="#DejaVuSans-3a" x="3742.960938"/>
     <use xlink:href="#DejaVuSans-20" x="3776.652344"/>
     <use xlink:href="#DejaVuSans-31" x="3808.439453"/>
     <use xlink:href="#DejaVuSans-32" x="3872.0625"/>
     <use xlink:href="#DejaVuSans-35" x="3935.685547"/>
     <use xlink:href="#DejaVuSans-30" x="3999.308594"/>
     <use xlink:href="#DejaVuSans-29" x="4062.931641"/>
    </g>
    <!--  -->
    <g style="fill: #808080" transform="translate(368.571875 32.994302) scale(0.1 -0.1)"/>
   </g>
   <g id="legend_1">
    <g id="patch_17">
     <path d="M 55.94399 57.752115 
L 296.67524 57.752115 
Q 298.67524 57.752115 298.67524 55.752115 
L 298.67524 42.07399 
Q 298.67524 40.07399 296.67524 40.07399 
L 55.94399 40.07399 
Q 53.94399 40.07399 53.94399 42.07399 
L 53.94399 55.752115 
Q 53.94399 57.752115 55.94399 57.752115 
z
" style="fill: none; opacity: 0.5; stroke: #808080; stroke-linejoin: miter"/>
    </g>
    <g id="patch_18">
     <path d="M 57.94399 51.672427 
L 77.94399 51.672427 
L 77.94399 44.672427 
L 57.94399 44.672427 
z
" style="fill: #0aaec4"/>
    </g>
    <g id="text_27" style="fill: #808080">
     <!-- Pyventus v0.6.0 -->
     <g transform="translate(85.94399 51.672427) scale(0.1 -0.1)">
      <use xlink:href="#DejaVuSans-50"/>
      <use xlink:href="#DejaVuSans-79" x="60.302734"/>
      <use xlink:href="#DejaVuSans-76" x="119.482422"/>
      <use xlink:href="#DejaVuSans-65" x="178.662109"/>
      <use xlink:href="#DejaVuSans-6e" x="240.185547"/>
      <use xlink:href="#DejaVuSans-74" x="303.564453"/>
      <use xlink:href="#DejaVuSans-75" x="342.773438"/>
      <use xlink:href="#DejaVuSans-73" x="406.152344"/>
      <use xlink:href="#DejaVuSans-20" x="458.251953"/>
      <use xlink:href="#DejaVuSans-76" x="490.039062"/>
      <use xlink:href="#DejaVuSans-30" x="549.21875"/>
      <use xlink:href="#DejaVuSans-2e" x="612.841797"/>
      <use xlink:href="#DejaVuSans-36" x="644.628906"/>
      <use xlink:href="#DejaVuSans-2e" x="708.251953"/>
      <use xlink:href="#DejaVuSans-30" x="740.039062"/>
     </g>
    </g>
    <g id="patch_19">
     <path d="M 186.309615 51.672427 
L 206.309615 51.672427 
L 206.309615 44.672427 
L 186.309615 44.672427 
z
" style="fill: #fba700"/>
    </g>
    <g id="text_28" style="fill: #808080">
     <!-- Pyventus v0.7.0 -->
     <g transform="translate(214.309615 51.672427) scale(0.1 -0.1)">
      <use xlink:href="#DejaVuSans-50"/>
      <use xlink:href="#DejaVuSans-79" x="60.302734"/>
      <use xlink:href="#DejaVuSans-76" x="119.482422"/>
      <use xlink:href="#DejaVuSans-65" x="178.662109"/>
      <use xlink:href="#DejaVuSans-6e" x="240.185547"/>
      <use xlink:href="#DejaVuSans-74" x="303.564453"/>
      <use xlink:href="#DejaVuSans-75" x="342.773438"/>
      <use xlink:href="#DejaVuSans-73" x="406.152344"/>
      <use xlink:href="#DejaVuSans-20" x="458.251953"/>
      <use xlink:href="#DejaVuSans-76" x="490.039062"/>
      <use xlink:href="#DejaVuSans-30" x="549.21875"/>
      <use xlink:href="#DejaVuSans-2e" x="612.841797"/>
      <use xlink:href="#DejaVuSans-37" x="644.628906"/>
      <use xlink:href="#DejaVuSans-2e" x="708.251953"/>
      <use xlink:href="#DejaVuSans-30" x="740.039062"/>
     </g>
    </g>
   </g>
  </g>
 </g>
 <defs>
  <clipPath id="pad986ed7cd">
   <rect x="48.94399" y="35.07399" width="639.25577" height="288.56952"/>
  </clipPath>
 </defs>
</svg>
